<?xml version="1.0" encoding="utf-8"?>
<!-- Generator: Adobe Illustrator 15.0.0, SVG Export Plug-In . SVG Version: 6.00 Build 0)  -->
<!DOCTYPE svg PUBLIC "-//W3C//DTD SVG 1.1//EN" "http://www.w3.org/Graphics/SVG/1.1/DTD/svg11.dtd">
<svg version="1.1" id="Layer_1" xmlns="http://www.w3.org/2000/svg" xmlns:xlink="http://www.w3.org/1999/xlink" x="0px" y="0px"
	 width="128px" height="128px" viewBox="0 0 128 128" enable-background="new 0 0 128 128" xml:space="preserve">
<path fill="none" stroke="#662D91" stroke-width="3" stroke-miterlimit="10" d="M97.774,95.972c-12.463,12.61-22.287,0-22.287,0
	c-12.462,12.61-22.287,0-22.287,0c-12.463,12.61-22.288,0-22.288,0"/>
<path fill="none" stroke="#662D91" stroke-width="3" stroke-miterlimit="10" d="M19.769,78.499c0,0,9.825,12.61,22.288,0
	c0,0,9.825,12.61,22.287,0c0,0,9.824,12.61,22.287,0c0,0,9.824,12.61,22.287,0"/>
<path fill="none" stroke="#662D91" stroke-width="3" stroke-miterlimit="10" d="M8.625,60.512c0,0,9.825,12.61,22.288,0
	c0,0,9.825,12.61,22.287,0c0,0,9.824,12.61,22.288,0c0,0,9.824,12.61,22.287,0c0,0,9.825,12.61,22.288,0"/>
<path fill="none" stroke="#662D91" stroke-width="3" stroke-linejoin="round" stroke-miterlimit="10" d="M85.667,65.945
	c0,0-11.167-15.796,8.333-32.279l-4-0.687c-38-4.333-46.176,32.965-46.176,32.965"/>
</svg>
